<mxfile host="65bd71144e">
    <diagram id="0CggES7Cqi2IRqGFY_4R" name="第 1 页">
        <mxGraphModel dx="826" dy="611" grid="1" gridSize="10" guides="1" tooltips="1" connect="1" arrows="1" fold="1" page="1" pageScale="1" pageWidth="827" pageHeight="1169" math="0" shadow="0">
            <root>
                <mxCell id="0"/>
                <mxCell id="1" parent="0"/>
                <mxCell id="2" value="&lt;font style=&quot;font-size: 20px;&quot;&gt;&lt;b&gt;游戏开始&lt;/b&gt;&lt;/font&gt;" style="rounded=1;whiteSpace=wrap;html=1;absoluteArcSize=1;arcSize=14;strokeWidth=2;" vertex="1" parent="1">
                    <mxGeometry x="110" y="240" width="100" height="100" as="geometry"/>
                </mxCell>
                <mxCell id="3" value="" style="strokeWidth=2;html=1;shape=mxgraph.flowchart.annotation_2;align=left;labelPosition=right;pointerEvents=1;fontSize=20;" vertex="1" parent="1">
                    <mxGeometry x="210" y="190" width="100" height="220" as="geometry"/>
                </mxCell>
                <mxCell id="4" value="&lt;b&gt;单人战役&lt;/b&gt;" style="strokeWidth=2;html=1;shape=mxgraph.flowchart.decision;whiteSpace=wrap;fontSize=20;" vertex="1" parent="1">
                    <mxGeometry x="310" y="140" width="100" height="100" as="geometry"/>
                </mxCell>
                <mxCell id="5" value="&lt;b&gt;人机对战&lt;/b&gt;" style="strokeWidth=2;html=1;shape=mxgraph.flowchart.decision;whiteSpace=wrap;fontSize=20;" vertex="1" parent="1">
                    <mxGeometry x="314" y="360" width="100" height="100" as="geometry"/>
                </mxCell>
                <mxCell id="8" value="" style="strokeWidth=2;html=1;shape=mxgraph.flowchart.annotation_2;align=left;labelPosition=right;pointerEvents=1;fontSize=20;" vertex="1" parent="1">
                    <mxGeometry x="410" y="110" width="50" height="160" as="geometry"/>
                </mxCell>
                <mxCell id="9" value="&lt;b&gt;简单模式&lt;/b&gt;" style="whiteSpace=wrap;html=1;fontSize=20;" vertex="1" parent="1">
                    <mxGeometry x="460" y="80" width="120" height="60" as="geometry"/>
                </mxCell>
                <mxCell id="10" value="&lt;b&gt;普通模式&lt;/b&gt;" style="whiteSpace=wrap;html=1;fontSize=20;" vertex="1" parent="1">
                    <mxGeometry x="460" y="150" width="120" height="60" as="geometry"/>
                </mxCell>
                <mxCell id="15" value="&lt;b&gt;困难模式&lt;/b&gt;" style="whiteSpace=wrap;html=1;fontSize=20;" vertex="1" parent="1">
                    <mxGeometry x="460" y="230" width="120" height="60" as="geometry"/>
                </mxCell>
                <mxCell id="18" value="" style="strokeWidth=2;html=1;shape=mxgraph.flowchart.annotation_2;align=left;labelPosition=right;pointerEvents=1;fontSize=20;" vertex="1" parent="1">
                    <mxGeometry x="414" y="330" width="50" height="160" as="geometry"/>
                </mxCell>
                <mxCell id="20" value="&lt;b&gt;简单模式&lt;/b&gt;" style="whiteSpace=wrap;html=1;fontSize=20;" vertex="1" parent="1">
                    <mxGeometry x="464" y="300" width="120" height="60" as="geometry"/>
                </mxCell>
                <mxCell id="21" value="&lt;b&gt;普通模式&lt;/b&gt;" style="whiteSpace=wrap;html=1;fontSize=20;" vertex="1" parent="1">
                    <mxGeometry x="464" y="380" width="120" height="60" as="geometry"/>
                </mxCell>
                <mxCell id="22" value="&lt;b&gt;困难模式&lt;/b&gt;" style="whiteSpace=wrap;html=1;fontSize=20;" vertex="1" parent="1">
                    <mxGeometry x="464" y="460" width="120" height="60" as="geometry"/>
                </mxCell>
            </root>
        </mxGraphModel>
    </diagram>
</mxfile>